<?xml version="1.0" standalone="no"?><!DOCTYPE svg PUBLIC "-//W3C//DTD SVG 1.1//EN" "http://www.w3.org/Graphics/SVG/1.1/DTD/svg11.dtd"><svg t="1580904272826" class="icon" viewBox="0 0 1024 1024" version="1.1" xmlns="http://www.w3.org/2000/svg" p-id="8192" xmlns:xlink="http://www.w3.org/1999/xlink" width="200" height="200"><defs><style type="text/css"></style></defs><path d="M359 512c-45 1.4-81.8 19.2-110.4 53.4h-55.8c-22.8 0-42-5.6-57.5-16.9-15.6-11.2-23.3-27.7-23.3-49.3 0-98.1 17.3-147 51.7-147 1.7 0 7.7 2.9 18.1 8.8 10.4 5.9 23.9 11.7 40.7 17.7 16.7 6 33.2 8.9 49.6 8.9 18.6 0 37.1-3.2 55.4-9.6-1.4 10.3-2.1 19.5-2.1 27.5-0.1 38.5 11.1 74.1 33.6 106.5z m-11.6-342c20.9 20.9 31.3 46 31.3 75.5s-10.4 54.6-31.3 75.5-46 31.3-75.5 31.3-54.6-10.4-75.5-31.3-31.3-46-31.3-75.5 10.4-54.6 31.3-75.5 46-31.3 75.5-31.3 54.6 10.4 75.5 31.3z m457.9 607.4c0 33.3-10.2 59.7-30.4 79-20.2 19.3-47.2 28.9-80.8 28.9H329.9c-33.7 0-60.6-9.6-80.8-28.9-20.2-19.3-30.4-45.7-30.4-79 0-14.7 0.4-29.1 1.5-43.1 1-14 2.9-29.2 5.9-45.4 2.9-16.2 6.6-31.3 11-45.2 4.5-13.8 10.4-27.4 17.9-40.7 7.5-13.2 16.1-24.4 25.9-33.7 9.7-9.3 21.6-16.7 35.7-22.3 14-5.5 29.5-8.3 46.4-8.3 2.8 0 8.8 3 17.9 8.9 9.2 6 19.3 12.6 30.4 20 11.1 7.4 25.9 14 44.6 20 18.6 6 37.3 8.9 56.3 8.9 18.9 0 37.6-3 56.3-8.9 18.6-6 33.5-12.6 44.6-20s21.2-14 30.4-20 15.2-8.9 17.9-8.9c16.9 0 32.4 2.8 46.4 8.3s25.9 13 35.7 22.3c9.7 9.3 18.3 20.6 25.9 33.7 7.5 13.2 13.5 26.7 17.9 40.7 4.5 13.9 8.1 28.9 11 45.2 2.9 16.2 4.8 31.4 5.9 45.4 0.6 14 1.1 28.4 1.1 43.1zM625.1 292.2c31.3 31.3 46.9 69 46.9 113.1s-15.6 81.8-46.9 113.1c-31.3 31.3-69 46.9-113.1 46.9s-81.8-15.6-113.1-46.9c-31.3-31.3-46.9-69-46.9-113.1s15.6-81.8 46.9-113.1 69-46.9 113.1-46.9c44.1 0 81.8 15.7 113.1 46.9zM827.3 170c20.9 20.9 31.3 46 31.3 75.5s-10.4 54.6-31.3 75.5-46 31.3-75.5 31.3c-29.4 0-54.6-10.4-75.5-31.3S645 275 645 245.5s10.4-54.6 31.3-75.5 46-31.3 75.5-31.3c29.6 0 54.8 10.4 75.5 31.3zM912 499.1c0 21.6-7.8 38.1-23.3 49.3-15.6 11.2-34.7 16.9-57.5 16.9h-55.8c-28.7-34.2-65.4-52-110.4-53.4 22.4-32.4 33.7-68 33.7-106.6 0-8.1-0.7-17.2-2.1-27.5 18.3 6.4 36.8 9.6 55.4 9.6 16.4 0 32.9-3 49.6-8.9 16.7-6 30.2-11.9 40.7-17.7 10.4-5.8 16.5-8.8 18.1-8.8 34.3 0.1 51.6 49.1 51.6 147.1z" p-id="8193"></path></svg>