<?xml version="1.0" standalone="no"?><!DOCTYPE svg PUBLIC "-//W3C//DTD SVG 1.1//EN" "http://www.w3.org/Graphics/SVG/1.1/DTD/svg11.dtd"><svg t="1579927414226" class="icon" viewBox="0 0 1025 1024" version="1.1" xmlns="http://www.w3.org/2000/svg" p-id="59971" xmlns:xlink="http://www.w3.org/1999/xlink" width="200.1953125" height="200"><defs><style type="text/css"></style></defs><path d="M490.753098 980.273052c11.891388 13.51443 31.395517 13.51443 43.282812 0l355.97209-405.605844c11.893435-13.515453 6.695814-24.619881-11.629409-24.619881l-133.086332 0c-18.32727 0-33.273374-14.59407-33.273374-32.486414L712.018884 257.64709c0-17.889274-14.943034-32.487437-33.271327-32.487437l-332.706107 0c-18.329317 0-33.278491 14.59714-33.278491 32.487437l0 259.914846c0 17.892344-14.939964 32.486414-33.268257 32.486414l-133.086332 0c-18.319083 0-23.528985 11.104428-11.629409 24.619881L490.753098 980.273052z" p-id="59972"></path><path d="M578.934599 95.205812c0-35.9167 29.769405-64.976921 66.547771-64.976921 36.773249 0 66.536514 29.06022 66.536514 64.976921 0 35.912607-29.763265 64.976921-66.536514 64.976921C608.702981 160.182733 578.934599 131.118419 578.934599 95.205812z" p-id="59973"></path><path d="M312.762959 95.205812c0-35.9167 29.762242-64.976921 66.549818-64.976921 36.776319 0 66.537537 29.06022 66.537537 64.976921 0 35.912607-29.761218 64.976921-66.537537 64.976921C342.525201 160.182733 312.762959 131.118419 312.762959 95.205812z" p-id="59974"></path><path d="M379.312777 30.228892l266.169593 0 0 129.953841-266.169593 0 0-129.953841Z" p-id="59975"></path></svg>