<?xml version="1.0" standalone="no"?><!DOCTYPE svg PUBLIC "-//W3C//DTD SVG 1.1//EN" "http://www.w3.org/Graphics/SVG/1.1/DTD/svg11.dtd"><svg t="1581001424927" class="icon" viewBox="0 0 1024 1024" version="1.1" xmlns="http://www.w3.org/2000/svg" p-id="16974" xmlns:xlink="http://www.w3.org/1999/xlink" width="200" height="200"><defs><style type="text/css"></style></defs><path d="M508.8 128h200.64a96 96 0 1 1 0 64H508.8c-5.696 27.904-18.56 53.248-36.8 73.792l164.864 218.24a256 256 0 1 1-109.952 306.304l-143.168 31.808a192 192 0 1 1-13.824-62.464l143.168-31.808A255.168 255.168 0 0 1 586.432 523.52L420.992 304.384A160 160 0 1 1 508.8 128zM352 256a96 96 0 1 0 0-192 96 96 0 0 0 0 192zM192 960a128 128 0 1 0 0-256 128 128 0 0 0 0 256z m576-64a192 192 0 1 0 0-384 192 192 0 0 0 0 384z" p-id="16975"></path></svg>