<?xml version="1.0" standalone="no"?><!DOCTYPE svg PUBLIC "-//W3C//DTD SVG 1.1//EN" "http://www.w3.org/Graphics/SVG/1.1/DTD/svg11.dtd"><svg t="1579874053267" class="icon" viewBox="0 0 1024 1024" version="1.1" xmlns="http://www.w3.org/2000/svg" p-id="57624" xmlns:xlink="http://www.w3.org/1999/xlink" width="200" height="200"><defs><style type="text/css"></style></defs><path d="M939.401846 750.788923c-24.024615 53.208615-35.524923 76.996923-66.481231 124.061539-43.165538 65.772308-104.014769 147.534769-179.436307 148.283076-67.032615 0.590769-84.243692-43.638154-175.18277-43.126153-90.939077 0.472615-109.883077 43.874462-176.955076 43.244307-75.382154-0.669538-133.12-74.594462-176.285539-140.288C44.307692 699.195077 31.704615 483.524923 106.180923 368.876308c52.932923-81.486769 136.388923-129.181538 214.921846-129.181539 79.950769 0 130.166154 43.835077 196.253539 43.835077 64.118154 0 103.187692-43.874462 195.584-43.874461 69.868308 0 143.832615 38.045538 196.608 103.739077-172.819692 94.680615-144.738462 341.385846 29.853538 407.394461zM642.835692 166.203077c-35.958154 46.119385-97.910154 81.92-157.774769 80.029538-10.909538-59.510154 17.132308-120.713846 51.121231-162.028307C573.676308 38.793846 637.794462 3.938462 692.657231 0.078769c9.255385 62.227692-16.226462 123.037538-49.821539 166.203077z" p-id="57625"></path></svg>