<?xml version="1.0" standalone="no"?><!DOCTYPE svg PUBLIC "-//W3C//DTD SVG 1.1//EN" "http://www.w3.org/Graphics/SVG/1.1/DTD/svg11.dtd"><svg t="1581001115584" class="icon" viewBox="0 0 1024 1024" version="1.1" xmlns="http://www.w3.org/2000/svg" p-id="1937" xmlns:xlink="http://www.w3.org/1999/xlink" width="200" height="200"><defs><style type="text/css"></style></defs><path d="M512 984.32A126.08 126.08 0 0 0 631.04 896h-240A126.08 126.08 0 0 0 512 984.32z m330.24-527.04L192 832h687.04c62.4 0 80.32-77.44 46.08-117.12a359.68 359.68 0 0 1-82.88-257.6z m132.16-246.08a64 64 0 0 0-87.36-23.36L768 256a326.72 326.72 0 0 0-178.56-112 77.76 77.76 0 0 0 0-8.64 79.04 79.04 0 0 0-158.08 0 78.08 78.08 0 0 0 0 8.96c-140.8 32-252.48 149.12-252.48 349.12A338.24 338.24 0 0 1 161.6 608l-92.48 51.84a64 64 0 1 0 64 110.72L951.04 298.56a64 64 0 0 0 23.36-87.36z" p-id="1938"></path></svg>